<mxfile host="app.diagrams.net" modified="2024-04-21T01:43:13.443Z" agent="Mozilla/5.0 (Windows NT 10.0; Win64; x64) AppleWebKit/537.36 (KHTML, like Gecko) Chrome/123.0.0.0 Safari/537.36 Edg/123.0.0.0" etag="YQKlV91fPmdIX7m6nWqk" version="24.0.5" type="github">
  <diagram name="第 1 页" id="auPAuu4w8da8gJcn2vNH">
    <mxGraphModel dx="1042" dy="577" grid="1" gridSize="10" guides="1" tooltips="1" connect="1" arrows="1" fold="1" page="1" pageScale="1" pageWidth="827" pageHeight="1169" math="0" shadow="0">
      <root>
        <mxCell id="0" />
        <mxCell id="1" parent="0" />
        <mxCell id="9jDrJ1MStHCGntTJWqV3-1" value="" style="rounded=0;whiteSpace=wrap;html=1;" vertex="1" parent="1">
          <mxGeometry x="90" y="190" width="710" height="130" as="geometry" />
        </mxCell>
        <mxCell id="9jDrJ1MStHCGntTJWqV3-2" value="&lt;b&gt;&lt;font style=&quot;font-size: 32px;&quot;&gt;某个磁盘&lt;/font&gt;&lt;/b&gt;" style="text;html=1;align=center;verticalAlign=middle;whiteSpace=wrap;rounded=0;" vertex="1" parent="1">
          <mxGeometry x="279" y="120" width="270" height="40" as="geometry" />
        </mxCell>
        <mxCell id="9jDrJ1MStHCGntTJWqV3-4" value="" style="endArrow=none;html=1;rounded=0;exitX=0.123;exitY=1.022;exitDx=0;exitDy=0;exitPerimeter=0;entryX=0.123;entryY=0;entryDx=0;entryDy=0;entryPerimeter=0;" edge="1" parent="1" source="9jDrJ1MStHCGntTJWqV3-1" target="9jDrJ1MStHCGntTJWqV3-1">
          <mxGeometry width="50" height="50" relative="1" as="geometry">
            <mxPoint x="390" y="310" as="sourcePoint" />
            <mxPoint x="440" y="260" as="targetPoint" />
          </mxGeometry>
        </mxCell>
        <mxCell id="9jDrJ1MStHCGntTJWqV3-5" value="元文件" style="text;html=1;align=center;verticalAlign=middle;whiteSpace=wrap;rounded=0;" vertex="1" parent="1">
          <mxGeometry x="100" y="200" width="60" height="30" as="geometry" />
        </mxCell>
      </root>
    </mxGraphModel>
  </diagram>
</mxfile>
